<?xml version="1.0" standalone="no"?>
<!DOCTYPE svg PUBLIC "-//W3C//DTD SVG 20010904//EN"
 "http://www.w3.org/TR/2001/REC-SVG-20010904/DTD/svg10.dtd">
<svg version="1.0" xmlns="http://www.w3.org/2000/svg"
 width="566.000000pt" height="441.000000pt" viewBox="0 0 566.000000 441.000000"
 preserveAspectRatio="xMidYMid meet">
<metadata>
Created by potrace 1.16, written by Peter Selinger 2001-2019
</metadata>
<g transform="translate(0.000000,441.000000) scale(0.100000,-0.100000)"
fill="#000000" stroke="none">
<path d="M2205 4233 c-251 -40 -428 -191 -466 -398 -24 -131 9 -299 84 -423
72 -121 241 -236 407 -277 125 -32 135 -35 167 -54 21 -13 36 -33 44 -59 36
-121 -136 -202 -276 -130 -27 15 -99 63 -159 108 -218 162 -368 230 -581 265
-293 48 -537 -20 -727 -204 -337 -325 -366 -841 -73 -1256 162 -229 412 -385
722 -449 314 -66 774 -27 1117 94 78 28 249 110 336 161 113 67 309 236 416
359 108 125 229 297 394 565 106 172 134 213 210 310 177 227 341 296 537 223
156 -57 228 -195 189 -361 -37 -158 -115 -248 -291 -335 -120 -60 -134 -65
-355 -140 -308 -105 -399 -143 -550 -233 -113 -67 -234 -189 -303 -304 -163
-275 -126 -573 97 -782 244 -228 630 -232 851 -8 132 134 178 311 116 451 -41
93 -154 183 -271 218 -56 17 -190 22 -190 8 0 -5 19 -19 43 -32 118 -66 220
-170 233 -238 14 -75 -27 -164 -97 -208 -93 -58 -222 -67 -322 -21 -95 44
-157 127 -165 223 -9 105 95 240 244 316 74 37 284 107 479 158 174 46 377
116 470 162 360 180 544 464 562 865 7 150 -7 228 -58 342 -160 355 -598 581
-984 507 -164 -32 -304 -90 -414 -173 -20 -15 -42 -32 -50 -38 -7 -5 -52 -46
-98 -90 -129 -121 -210 -229 -428 -570 -125 -196 -190 -287 -286 -401 -37 -45
-65 -85 -61 -89 4 -4 2 -5 -3 -3 -14 4 -95 -65 -95 -81 0 -7 -3 -10 -8 -7 -4
2 -28 -11 -52 -30 -25 -19 -66 -46 -92 -61 -27 -14 -48 -29 -48 -33 0 -4 -6
-7 -12 -7 -7 0 -38 -12 -68 -25 -90 -42 -167 -65 -310 -94 -117 -24 -159 -28
-315 -28 -234 -1 -345 25 -477 111 -136 89 -210 208 -216 348 -5 95 7 143 47
207 106 166 308 141 636 -81 246 -166 352 -205 560 -205 151 0 217 15 340 74
188 92 327 258 381 460 28 103 24 273 -10 376 -72 224 -209 329 -516 399 -199
45 -242 75 -188 132 19 21 30 24 62 20 40 -6 67 -19 268 -125 204 -110 366
-157 578 -168 140 -8 226 5 256 39 12 14 26 53 34 96 l13 71 -28 30 c-41 43
-162 102 -310 150 -158 51 -205 75 -361 178 -160 105 -217 136 -307 167 -74
25 -208 39 -272 28z m164 -186 c6 -8 8 -17 4 -20 -3 -4 3 -7 14 -7 25 0 75
-56 71 -79 -3 -11 -12 -15 -30 -13 -19 2 -27 -3 -31 -18 -8 -30 -30 -25 -24 5
2 14 2 23 -1 21 -11 -11 -40 15 -36 31 7 25 -20 61 -31 43 -5 -9 -4 -11 3 -6
8 5 12 -3 12 -23 0 -39 -38 -65 -47 -32 -4 15 -8 17 -18 8 -18 -17 22 -36 53
-25 14 5 30 4 40 -2 15 -9 15 -10 -3 -7 -11 2 -37 -5 -59 -16 -21 -10 -47 -16
-58 -14 -11 3 -17 3 -14 0 3 -3 -1 -12 -9 -19 -8 -8 -12 -22 -9 -32 5 -14 4
-15 -5 -2 -8 12 -13 11 -34 -8 -13 -12 -30 -22 -39 -22 -17 0 -32 26 -22 41 3
5 1 9 -4 9 -13 0 2 75 22 105 9 14 21 25 26 25 6 0 9 3 9 8 -5 30 3 42 29 42
15 0 56 3 92 8 36 5 70 10 76 11 6 0 17 -5 23 -12z m461 -842 c0 -8 9 -19 20
-25 28 -15 74 -98 77 -140 1 -19 -3 -66 -9 -105 -9 -61 -16 -77 -54 -122 -50
-58 -73 -70 -105 -53 -15 8 -19 9 -15 1 4 -6 2 -11 -3 -11 -6 0 -11 8 -11 18
0 27 12 62 19 58 9 -6 7 57 -3 73 -6 9 -3 19 11 30 12 9 23 34 27 56 5 34 2
43 -17 57 -26 20 -14 39 27 41 25 2 38 17 15 17 -8 0 -10 14 -6 40 3 22 1 43
-4 46 -17 10 -9 34 11 34 11 0 20 -7 20 -15z m857 -146 c2 -15 -7 -45 -22 -70
-13 -24 -25 -37 -25 -28 0 8 5 20 12 27 10 10 8 16 -7 30 -18 16 -18 16 -4 -2
11 -15 11 -20 2 -23 -7 -3 -13 -14 -13 -24 0 -11 -4 -18 -9 -14 -5 3 -12 1
-16 -4 -4 -7 -14 -6 -30 1 -19 8 -22 14 -13 28 8 12 8 22 -1 36 -10 17 -10 16
-5 -8 5 -23 2 -29 -16 -36 -20 -7 -19 -10 19 -24 29 -12 41 -22 41 -37 0 -25
-35 -37 -57 -19 -14 11 -15 11 -11 -2 13 -41 89 -9 81 34 -4 19 -1 24 12 22
16 -2 35 -23 35 -38 0 -5 -9 -8 -20 -8 -12 0 -25 -10 -32 -25 -6 -13 -15 -22
-21 -18 -6 3 -7 2 -4 -4 7 -10 -13 -73 -29 -94 -6 -8 -33 -58 -59 -112 -38
-77 -52 -97 -66 -94 -12 3 -16 0 -12 -9 3 -8 9 -11 14 -8 5 3 6 -2 3 -10 -3
-9 -10 -16 -15 -16 -5 0 -9 -3 -8 -7 3 -18 -14 -52 -22 -47 -5 3 -9 2 -8 -3 3
-20 -2 -34 -11 -28 -5 3 -7 0 -5 -7 3 -8 -8 -24 -25 -36 -16 -13 -30 -27 -30
-33 0 -6 9 -1 20 12 21 24 21 24 8 1 -11 -19 -11 -24 1 -31 7 -5 12 -14 9 -21
-2 -7 -14 -4 -33 12 -17 12 -24 15 -17 6 11 -13 2 -27 -62 -93 -49 -52 -78
-75 -86 -70 -8 5 -11 4 -7 -2 14 -23 -18 -43 -73 -46 -53 -2 -55 -1 -58 26 -2
18 2 29 12 33 21 8 46 -13 46 -39 0 -22 13 -16 16 9 1 8 -4 18 -12 21 -8 3
-11 9 -8 14 3 5 2 9 -3 8 -38 -7 -36 30 3 56 13 8 24 21 24 28 0 6 -7 3 -15
-7 -18 -24 -19 -9 -1 23 8 15 16 20 20 12 4 -6 15 -11 24 -10 14 0 14 2 2 6
-23 9 -60 45 -60 60 0 9 10 12 34 9 29 -4 34 -2 28 12 -5 14 -3 15 10 4 13
-10 17 -10 21 2 4 9 1 18 -5 22 -7 5 -8 2 -3 -6 5 -8 4 -11 -3 -7 -5 4 -8 16
-5 27 3 11 9 18 13 15 5 -3 11 -1 15 5 3 5 1 10 -4 10 -19 0 -12 45 8 57 11 7
21 9 24 5 2 -4 2 -1 0 6 -4 18 28 90 34 75 3 -7 9 -13 15 -13 6 0 5 6 -2 15
-16 20 3 70 23 59 6 -4 9 -4 5 1 -4 4 -17 13 -30 19 -12 6 -23 17 -26 24 -5
17 27 15 34 -2 3 -8 12 -17 21 -20 10 -4 13 -2 10 8 -3 8 8 35 24 60 33 53 35
64 14 72 -8 4 -15 13 -15 21 0 10 6 13 15 9 8 -3 21 -8 28 -11 6 -2 24 13 39
35 15 21 33 38 40 36 29 -4 40 -19 36 -48 -4 -22 0 -31 16 -39 18 -9 19 -8 6
3 -8 7 -14 23 -12 35 4 30 -16 66 -34 59 -8 -3 -14 -1 -14 4 0 6 -6 10 -14 10
-21 0 -40 26 -25 36 7 4 20 -2 31 -16 l18 -22 21 26 c11 14 25 23 31 20 6 -4
9 -3 6 2 -10 17 11 54 31 54 11 0 23 5 26 11 4 6 14 8 22 5 8 -3 12 -2 9 3 -3
4 6 13 20 20 20 9 24 9 18 -1 -4 -7 2 -5 12 5 27 25 57 18 61 -14z m-2777 -59
c9 -5 17 -5 21 1 10 17 91 -2 116 -27 28 -28 24 -59 -15 -116 -28 -42 -37 -45
-64 -21 -18 16 -18 16 -12 0 3 -9 10 -17 14 -17 14 0 40 -30 40 -45 0 -15 -30
-9 -41 8 -3 5 -9 1 -12 -8 -4 -9 -3 -13 3 -10 12 8 13 -5 1 -24 -14 -22 -37
-21 -38 2 -1 11 -10 27 -19 36 -16 14 -17 14 -6 0 6 -8 13 -30 14 -47 1 -20 7
-31 14 -28 8 3 10 -3 4 -22 -4 -15 -12 -26 -18 -25 -6 2 -9 -3 -6 -10 2 -7 -2
-30 -11 -50 -8 -20 -16 -40 -16 -44 -1 -5 -5 -19 -10 -32 -5 -13 -11 -35 -13
-50 -2 -14 -11 -45 -21 -68 -16 -37 -20 -41 -34 -30 -14 11 -14 10 -2 -6 12
-15 11 -21 -9 -42 -28 -30 -45 -31 -87 -5 -46 27 -69 66 -53 85 11 13 10 14
-3 10 -11 -5 -19 7 -33 47 -19 56 -20 137 -3 217 7 30 6 47 -2 57 -15 18 -1
37 22 31 11 -3 17 -2 14 3 -2 4 14 36 37 71 24 37 41 74 39 87 -3 24 8 29 26
11 9 -9 19 -6 39 10 15 12 35 19 45 16 9 -3 20 -1 24 4 4 7 -1 8 -12 5 -10 -3
-4 3 12 15 34 24 35 24 55 11z m4023 -117 c-4 -10 -2 -14 4 -10 18 12 36 -47
39 -132 2 -46 6 -86 9 -89 10 -10 5 -32 -8 -32 -7 0 -19 -16 -26 -35 -7 -19
-17 -35 -22 -35 -14 0 -11 11 7 32 14 14 14 20 4 33 -8 9 -8 15 -2 15 16 0 26
40 12 54 -8 8 -9 6 -4 -8 5 -13 1 -23 -11 -32 -15 -11 -16 -16 -4 -30 11 -14
10 -19 -8 -34 -19 -15 -20 -19 -7 -32 13 -13 10 -22 -29 -79 -24 -35 -50 -64
-58 -64 -7 0 -24 -11 -36 -23 -19 -19 -27 -21 -38 -12 -8 7 -12 16 -9 21 3 5
-2 6 -11 3 -14 -6 -14 -8 1 -19 27 -20 10 -48 -26 -43 -16 2 -27 1 -24 -3 7
-11 -60 -22 -85 -14 -27 8 -28 45 -1 45 11 0 27 11 36 25 9 14 19 23 22 21 3
-3 -1 -12 -8 -21 -8 -10 -9 -15 -1 -15 11 0 13 5 15 55 1 23 6 31 24 33 36 5
37 -23 3 -70 -17 -23 -31 -46 -31 -51 0 -5 16 15 36 44 31 44 35 55 25 71 -10
16 -8 24 14 49 29 35 31 45 10 53 -8 3 -15 12 -15 21 0 13 8 15 41 11 22 -2
38 -2 35 1 -3 3 2 12 12 20 9 8 11 11 3 7 -10 -5 -11 -1 -6 17 16 50 25 69 33
69 4 0 9 10 9 23 4 47 14 67 33 67 10 0 21 4 25 9 3 6 -4 8 -16 6 -42 -8 -68
37 -30 50 11 3 23 15 26 25 4 12 12 17 22 13 12 -5 14 -3 8 7 -5 8 -4 11 3 6
6 -4 8 -14 5 -23z m-848 -1653 c-4 -6 -11 -8 -16 -5 -5 3 -6 -1 -2 -10 4 -12
8 -13 13 -5 10 16 30 4 30 -17 0 -9 -6 -13 -15 -9 -8 3 -15 0 -15 -7 0 -8 -4
-7 -11 3 -9 13 -10 13 -6 0 2 -8 11 -14 21 -12 11 2 16 -4 16 -20 0 -19 -2
-20 -10 -8 -6 9 -10 10 -10 3 0 -6 -3 -20 -6 -30 -5 -15 -4 -15 5 -3 12 17 14
10 5 -14 -3 -9 -11 -13 -17 -9 -6 3 -7 1 -3 -6 14 -22 -5 -51 -51 -77 -35 -21
-47 -24 -53 -14 -6 9 -9 5 -12 -15 -2 -16 -9 -31 -17 -33 -10 -3 -11 0 -5 9
15 24 14 41 -3 35 -13 -5 -14 -4 -3 9 11 14 10 14 -14 6 -21 -9 -26 -8 -26 4
0 9 9 15 23 15 16 0 31 12 47 39 14 21 29 38 35 36 5 -1 7 0 3 2 -13 7 -9 30
7 43 13 10 15 9 15 -11 0 -13 5 -31 10 -39 8 -11 9 -7 4 15 -4 20 -3 26 4 17
7 -11 10 -11 15 3 4 9 3 13 -3 10 -5 -3 -14 4 -20 15 -11 20 -10 21 9 10 24
-12 30 4 6 17 -13 8 -11 15 12 51 21 33 29 39 36 27 4 -8 5 -20 2 -25z"/>
</g>
</svg>
